<?xml version="1.0" encoding="UTF-8"?>
<svg version="1.1" xmlns="http://www.w3.org/2000/svg" width="2000" height="2000">
<path d="M0 0 C1.49708496 0.50805176 1.49708496 0.50805176 3.02441406 1.02636719 C25.72289333 8.85009834 47.74269237 19.07545413 68 32 C69.07870361 32.68545898 69.07870361 32.68545898 70.17919922 33.38476562 C91.54074536 47.06133708 110.88496337 62.76738215 128.875 80.625 C130.17679199 81.91277344 130.17679199 81.91277344 131.50488281 83.2265625 C137.42515414 89.17631048 142.77238016 95.43880367 148 102 C149.0246216 103.24313409 150.05160124 104.48433247 151.08203125 105.72265625 C158.74406925 115.04582957 165.52441365 124.82208272 172 135 C172.39783691 135.62310059 172.79567383 136.24620117 173.20556641 136.88818359 C193.02964696 168.20971529 207.50894632 202.61100738 217.4375 238.25 C217.75541504 239.39025635 218.07333008 240.5305127 218.40087891 241.70532227 C222.44883635 256.74634757 224.68657279 271.93587203 226.5 287.375 C226.60638794 288.27207672 226.71277588 289.16915344 226.8223877 290.09341431 C237.84746944 383.84467633 234.41652119 479.23962093 107.70996094 865.11523438 C106.05505746 867.90711608 104.41900612 870.70911286 102.7890625 873.515625 C91.48293488 892.9319497 79.51560449 911.93458833 66.34082031 930.14160156 C65.03678773 931.94901162 63.74647743 933.76534042 62.4609375 935.5859375 C56.14517261 944.51976521 49.61257464 953.28413252 43 962 C42.55092285 962.59232422 42.1018457 963.18464844 41.63916016 963.79492188 C33.7554507 974.17302876 25.52830774 984.2424341 17.08178711 994.16625977 C14.20812163 997.54830834 11.4013944 1000.97463446 8.625 1004.4375 C4.00591376 1010.119973 -0.97459047 1015.43052979 -5.984375 1020.765625 C-8.3383037 1023.27628878 -10.62994214 1025.82837871 -12.875 1028.4375 C-15.50689917 1031.49076234 -18.29797836 1034.32127946 -21.17504883 1037.14257812 C-22.86280014 1038.86035899 -24.41858439 1040.62657877 -25.97265625 1042.46484375 C-30.52592868 1047.69972215 -35.4296927 1052.57971817 -40.3425293 1057.47290039 C-41.93458966 1059.05959946 -43.5212299 1060.65157742 -45.10742188 1062.24414062 C-50.0403172 1067.1799231 -54.99909177 1072.03794974 -60.33227539 1076.54663086 C-62.14053747 1078.12247395 -63.82100106 1079.78779064 -65.5 1081.5 C-68.48743924 1084.53464483 -71.61411033 1087.34286092 -74.83984375 1090.12109375 C-77.2190631 1092.19054132 -79.54557082 1094.31221485 -81.875 1096.4375 C-86.00555449 1100.17345607 -90.27121288 1103.67095476 -94.67578125 1107.078125 C-97.28831999 1109.23840913 -99.60857207 1111.59779987 -102 1114 C-110.20069651 1121.52501991 -118.93103954 1128.33761352 -127.87890625 1134.94140625 C-131.34297746 1137.49859232 -134.75470455 1140.11709056 -138.15722656 1142.75537109 C-168.99206522 1166.61891749 -202.14251918 1187.71652902 -236 1207 C-237.09538086 1207.62390625 -238.19076172 1208.2478125 -239.31933594 1208.890625 C-309.74709499 1248.79901251 -385.05070161 1278.93764867 -515 1311 C-516.1348584 1311.23299805 -517.2697168 1311.46599609 -518.43896484 1311.70605469 C-601.75327898 1328.44812142 -691.94952285 1325.86672401 -967.42041016 1230.73193359 C-988.04569237 1216.88414332 -1007.34166261 1201.25267038 -1025.52929688 1184.35302734 C-1026.96901781 1183.02850321 -1028.42965724 1181.72683227 -1029.890625 1180.42578125 C-1048.33370732 1163.93056458 -1064.3437119 1144.88308844 -1079 1125 C-1079.84715576 1123.85168701 -1079.84715576 1123.85168701 -1080.71142578 1122.68017578 C-1138.19001581 1044.14394819 -1166.14708014 944.41687811 -1151.62988281 843.80224609 C-1149.96240271 833.73661231 -1147.63233609 823.85295811 -1145 814 C-1144.74379883 813.03723145 -1144.48759766 812.07446289 -1144.22363281 811.08251953 C-1133.83317476 772.90377876 -1115.84138032 736.55697663 -1092 705 C-1091.57009766 704.42733398 -1091.14019531 703.85466797 -1090.69726562 703.26464844 C-1084.37304679 694.88621254 -1077.57841209 687.10347906 -1070.37402344 679.47558594 C-1068.36601703 677.31915546 -1066.43871685 675.09367596 -1064.5 672.875 C-1020.69513137 624.21163073 -953.8742853 594.4383696 -889 591 C-831.16527116 588.98990256 -770.58106899 601.38928072 -723 636 C-722.03320312 636.69480469 -721.06640625 637.38960937 -720.0703125 638.10546875 C-701.16041549 651.98091266 -683.77469738 667.93992528 -670 687 C-669.22398437 688.06605469 -668.44796875 689.13210938 -667.6484375 690.23046875 C-661.98138172 698.22471754 -656.84690057 706.4903616 -652 715 C-651.41847168 716.01513672 -651.41847168 716.01513672 -650.82519531 717.05078125 C-626.05244553 760.79365474 -614.0001345 811.08675526 -601.8515625 859.43359375 C-601.58204427 860.50607644 -601.58204427 860.50607644 -601.30708122 861.60022545 C-600.75762618 863.78693206 -600.20827168 865.97366391 -599.65893555 868.16040039 C-598.9186617 871.10698507 -598.17819701 874.05352167 -597.4375 877 C-597.16267477 878.09336229 -597.16267477 878.09336229 -596.88229752 879.20881271 C-591.23001425 901.68223617 -585.35817371 924.01416842 -578 946 C-577.63036133 947.12100098 -577.26072266 948.24200195 -576.87988281 949.39697266 C-564.52360956 986.53769552 -547.15996453 1021.62625759 -521 1051 C-520.54238281 1051.51933105 -520.08476563 1052.03866211 -519.61328125 1052.57373047 C-510.68255725 1062.68333505 -501.28439026 1071.53309496 -490 1079 C-489.76023437 1078.4740625 -489.52046875 1077.948125 -489.2734375 1077.40625 C-487.61831667 1074.27878241 -485.6194681 1071.41600708 -483.625 1068.5 C-472.51997525 1051.99550897 -462.94598362 1034.75476847 -454 1017 C-453.57509277 1016.17016602 -453.15018555 1015.34033203 -452.71240234 1014.48535156 C-419.57277128 949.51959046 -403.90422919 873.92434426 -396.6875 801.8125 C-396.56526062 800.59483444 -396.56526062 800.59483444 -396.44055176 799.35256958 C-394.39263214 778.62359482 -393.79198177 758.01438177 -393.8125 737.1875 C-393.81343658 735.95169189 -393.81437317 734.71588379 -393.81533813 733.44262695 C-393.86402793 703.63775483 -395.5316574 674.24619229 -398.171875 644.56640625 C-398.33187894 642.76455462 -398.33187894 642.76455462 -398.49511528 640.92630196 C-401.09004925 611.88283862 -404.30796938 582.91308032 -407.5625 553.9375 C-411.89595989 515.35413322 -416.04748131 476.78454785 -418.70239258 438.04321289 C-418.75195193 437.32106094 -418.80151129 436.598909 -418.85257244 435.85487366 C-421.36558206 398.17564631 -421.64472768 359.6060625 -418 322 C-417.93683594 321.33641479 -417.87367188 320.67282959 -417.80859375 319.98913574 C-412.68653037 266.51190666 -400.60422868 213.48369453 -377 165 C-376.57509277 164.12649902 -376.15018555 163.25299805 -375.71240234 162.35302734 C-366.80392852 144.29244724 -356.06560519 127.11380333 -344 111 C-343.60248535 110.46503906 -343.2049707 109.93007813 -342.79541016 109.37890625 C-324.78101102 85.19539095 -303.91110449 62.42069191 -279.734375 44.30175781 C-277.98998711 42.99248469 -276.26062224 41.66495619 -274.53125 40.3359375 C-195.33571104 -19.83570397 -93.10500249 -31.73834362 0 0 Z " fill="#C365FE" transform="translate(1461,360)"/>
<path d="M0 0 C0.96679688 0.69480469 1.93359375 1.38960937 2.9296875 2.10546875 C21.83958451 15.98091266 39.22530262 31.93992528 53 51 C53.77601563 52.06605469 54.55203125 53.13210938 55.3515625 54.23046875 C61.01861828 62.22471754 66.15309943 70.4903616 71 79 C71.58152832 80.01513672 71.58152832 80.01513672 72.17480469 81.05078125 C96.94755447 124.79365474 108.9998655 175.08675526 121.1484375 223.43359375 C121.41795573 224.50607644 121.41795573 224.50607644 121.69291878 225.60022545 C122.24237382 227.78693206 122.79172832 229.97366391 123.34106445 232.16040039 C124.0813383 235.10698507 124.82180299 238.05352167 125.5625 241 C125.83732523 242.09336229 125.83732523 242.09336229 126.11770248 243.20881271 C131.76998575 265.68223617 137.64182629 288.01416842 145 310 C145.55445801 311.68150146 145.55445801 311.68150146 146.12011719 313.39697266 C158.47639044 350.53769552 175.84003547 385.62625759 202 415 C202.68642578 415.77899658 202.68642578 415.77899658 203.38671875 416.57373047 C243.93587336 462.47548707 303.36471356 485.30719964 363 493 C363.72184479 493.09356781 364.44368958 493.18713562 365.18740845 493.28353882 C384.81716733 495.67969431 404.59341792 495.30635421 424.33178711 495.26074219 C429.30343305 495.24937193 434.27486434 495.25610578 439.24650288 495.26761818 C459.90481746 495.30830543 480.43953592 495.26698498 501 493 C501.74116058 492.91967529 502.48232117 492.83935059 503.24594116 492.7565918 C507.40598443 492.29265692 511.54679127 491.73622388 515.6875 491.125 C516.89841309 490.9499292 518.10932617 490.7748584 519.35693359 490.59448242 C522.90640888 490.07423223 526.45320591 489.53817334 530 489 C530.97437012 488.85868652 531.94874023 488.71737305 532.95263672 488.57177734 C566.42884956 483.67787103 601.17294816 474.17083573 632.19506836 460.57739258 C634 460 634 460 636 461 C634.44063615 462.89848764 632.87764411 464.79378663 631.3125 466.6875 C630.87744141 467.21794922 630.44238281 467.74839844 629.99414062 468.29492188 C620.07417565 480.27236107 607.57272672 489.75172943 595.12109375 498.94140625 C591.65702254 501.49859232 588.24529545 504.11709056 584.84277344 506.75537109 C554.00793478 530.61891749 520.85748082 551.71652902 487 571 C485.90461914 571.62390625 484.80923828 572.2478125 483.68066406 572.890625 C413.25290501 612.79901251 337.94929839 642.93764867 208 675 C206.8651416 675.23299805 205.7302832 675.46599609 204.56103516 675.70605469 C121.24672102 692.44812142 31.05047715 689.86672401 -244.42041016 594.73193359 C-265.04569237 580.88414332 -284.34166261 565.25267038 -302.52929688 548.35302734 C-303.96901781 547.02850321 -305.42965724 545.72683227 -306.890625 544.42578125 C-325.33370732 527.93056458 -341.3437119 508.88308844 -356 489 C-356.56477051 488.23445801 -357.12954102 487.46891602 -357.71142578 486.68017578 C-415.19001581 408.14394819 -443.14708014 308.41687811 -428.62988281 207.80224609 C-426.96240271 197.73661231 -424.63233609 187.85295811 -422 178 C-421.74379883 177.03723145 -421.48759766 176.07446289 -421.22363281 175.08251953 C-410.83317476 136.90377876 -392.84138032 100.55697663 -369 69 C-368.57009766 68.42733398 -368.14019531 67.85466797 -367.69726562 67.26464844 C-361.37304679 58.88621254 -354.57841209 51.10347906 -347.37402344 43.47558594 C-345.36601703 41.31915546 -343.43871685 39.09367596 -341.5 36.875 C-274.05586242 -38.04952494 -161.89293411 -62.78244209 0 0 Z " fill="#FD7277" transform="translate(738,996)"/>
<path d="M0 0 C1.0526001 0.50249268 1.0526001 0.50249268 2.12646484 1.01513672 C28.01608873 13.45528366 51.85924094 28.69195348 74 47 C74.92683594 47.74121094 75.85367187 48.48242188 76.80859375 49.24609375 C85.48190635 56.32082794 93.3893489 64.17299698 101.3125 72.0625 C102.15180054 72.89403595 102.15180054 72.89403595 103.00805664 73.74237061 C110.14591831 80.82818645 116.75428591 88.09966469 123 96 C123.97618836 97.17414488 124.95607237 98.34523811 125.94140625 99.51171875 C139.86916457 116.26573944 151.55828797 134.91005777 162 154 C162.47888672 154.86882812 162.95777344 155.73765625 163.45117188 156.6328125 C187.3075473 200.18853564 202.19380275 247.76097643 209.75 296.75 C209.94875732 298.02641357 210.14751465 299.30282715 210.35229492 300.61791992 C213.45700581 321.69349057 214.37867073 342.6489262 214.3125 363.9375 C214.31034485 365.1903479 214.3081897 366.4431958 214.30596924 367.73400879 C214.25286938 387.0114055 213.7142192 405.89560359 211 425 C210.85434601 426.05241882 210.85434601 426.05241882 210.70574951 427.12609863 C202.35863814 487.39810212 184.02402578 544.10675612 158 599 C157.5349707 599.98661621 157.06994141 600.97323242 156.59082031 601.98974609 C150.36606511 615.11149179 143.16714442 627.61923974 135.72119141 640.08203125 C134.48882371 642.1712878 133.28018276 644.27461129 132.08740234 646.38671875 C131.46430176 647.48628906 130.84120117 648.58585938 130.19921875 649.71875 C129.35170044 651.2337207 129.35170044 651.2337207 128.48706055 652.77929688 C127.99633057 653.51212891 127.50560059 654.24496094 127 655 C126.34 655 125.68 655 125 655 C124.81002441 654.46334717 124.62004883 653.92669434 124.42431641 653.3737793 C111.23507689 616.51044191 89.55718129 586.36176032 58 563 C57.13955078 562.35635498 57.13955078 562.35635498 56.26171875 561.69970703 C47.52477488 555.18890884 38.48133864 549.36507243 29 544 C28.31405762 543.60844727 27.62811523 543.21689453 26.92138672 542.81347656 C-1.35684994 526.8292854 -32.65024718 516.64753629 -64.05859375 508.79296875 C-65.18641329 508.51000789 -65.18641329 508.51000789 -66.33701706 508.22133064 C-86.7639806 503.127223 -107.41476342 499.11013359 -128.06494141 495.04064941 C-176.80375348 485.43404057 -176.80375348 485.43404057 -197.0546875 480.65625 C-198.06662359 480.4182433 -198.06662359 480.4182433 -199.09900284 480.17542839 C-228.4623557 473.23446818 -257.85867602 464.31007321 -285 451 C-285.98355469 450.52046875 -286.96710938 450.0409375 -287.98046875 449.546875 C-306.74126502 440.31796155 -324.22654805 429.79534804 -340 416 C-340.81210937 415.29746094 -341.62421875 414.59492187 -342.4609375 413.87109375 C-353.89398208 403.79053867 -363.89994424 393.20319166 -373 381 C-373.63784424 380.16130371 -373.63784424 380.16130371 -374.28857422 379.30566406 C-381.54789157 369.74379507 -387.46587447 359.6423828 -393 349 C-393.4125 348.21834473 -393.825 347.43668945 -394.25 346.63134766 C-405.88138545 324.36360543 -413.89546294 299.77593748 -418 275 C-418.16081055 274.03336426 -418.32162109 273.06672852 -418.48730469 272.07080078 C-427.81872725 212.87879765 -416.5763911 150.58936669 -384 100 C-383.57251465 99.33597168 -383.1450293 98.67194336 -382.70458984 97.98779297 C-372.87445025 82.89840121 -361.47091904 68.97924454 -349 56 C-348.484375 55.46246094 -347.96875 54.92492187 -347.4375 54.37109375 C-340.35465675 47.03285952 -333.0728577 40.25594855 -325 34 C-323.71087892 32.98184499 -322.42182081 31.96361027 -321.1328125 30.9453125 C-236.02690164 -35.74859573 -125.94335189 -47.44726038 0 0 Z " fill="#64C41A" transform="translate(772,350)"/>
</svg>
