<?xml version="1.0" encoding="UTF-8"?>
<!DOCTYPE svg PUBLIC "-//W3C//DTD SVG 1.1//EN" "http://www.w3.org/Graphics/SVG/1.1/DTD/svg11.dtd">
<svg xmlns="http://www.w3.org/2000/svg" version="1.1" width="6007px" height="5935px" style="shape-rendering:geometricPrecision; text-rendering:geometricPrecision; image-rendering:optimizeQuality; fill-rule:evenodd; clip-rule:evenodd" xmlns:xlink="http://www.w3.org/1999/xlink">
<g><path style="opacity:0.999" fill="#63c419" d="M 1388.5,138.5 C 1539.7,135.151 1688.37,152.984 1834.5,192C 1905.33,210.722 1975,233.055 2043.5,259C 2297.13,381.619 2501.3,560.786 2656,796.5C 2783.39,996.936 2867.39,1214.6 2908,1449.5C 2924.13,1537.77 2932.79,1626.77 2934,1716.5C 2939.44,1851.5 2930.44,1985.5 2907,2118.5C 2859.17,2380.34 2771.83,2628.01 2645,2861.5C 2620.29,2903.75 2595.46,2945.92 2570.5,2988C 2567.24,2988.78 2564.07,2988.62 2561,2987.5C 2508.92,2836.48 2420.09,2711.98 2294.5,2614C 2191.16,2535.22 2077.49,2474.56 1953.5,2432C 1851.56,2397.93 1747.9,2370.27 1642.5,2349C 1517.01,2324.43 1391.67,2299.1 1266.5,2273C 1170.83,2252.55 1076.83,2226.22 984.5,2194C 898.334,2162.41 816.001,2123.08 737.5,2076C 586.507,1981.35 471.673,1854.18 393,1694.5C 316.333,1538.51 280,1373.51 284,1199.5C 290.846,946.989 377.18,726.655 543,538.5C 584.934,490.231 630.434,445.731 679.5,405C 885.384,237.507 1121.72,148.674 1388.5,138.5 Z"/></g>
<g><path style="opacity:1" fill="#c365fd" d="M 4504.5,4924.5 C 4520.04,4907.13 4535.04,4889.29 4549.5,4871C 4546.26,4869.53 4542.92,4868.36 4539.5,4867.5C 4445.32,4907.5 4348.32,4939 4248.5,4962C 4160.13,4980.01 4071.13,4994.34 3981.5,5005C 3937.27,5009.4 3892.94,5012.07 3848.5,5013C 3740.17,5013.67 3631.83,5013.67 3523.5,5013C 3377.97,5007.63 3237.3,4978.96 3101.5,4927C 3007.19,4890.37 2920.86,4840.71 2842.5,4778C 2836.93,4773.25 2831.59,4768.42 2826.5,4763.5C 2840.54,4774.2 2854.87,4784.53 2869.5,4794.5C 2874.13,4786.04 2878.97,4777.7 2884,4769.5C 3017.38,4572.68 3114.05,4358.68 3174,4127.5C 3251.52,3824.86 3282.52,3517.53 3267,3205.5C 3262.75,3112.99 3256.08,3020.66 3247,2928.5C 3229.47,2757.08 3211.14,2585.75 3192,2414.5C 3176.86,2275.17 3166.19,2135.5 3160,1995.5C 3152.25,1803.01 3165.58,1612.01 3200,1422.5C 3230.61,1254.32 3284.95,1094.32 3363,942.5C 3436.18,808.944 3526.68,688.111 3634.5,580C 3923.31,304.401 4266.98,191.401 4665.5,241C 4938.47,281.021 5177.47,391.687 5382.5,573C 5430.4,614.9 5474.9,660.066 5516,708.5C 5637.73,854.545 5729.07,1018.54 5790,1200.5C 5817.02,1276.93 5836.36,1355.26 5848,1435.5C 5864.36,1546.41 5873.19,1657.91 5874.5,1770C 5873.25,1889.87 5863.41,2009.04 5845,2127.5C 5820.87,2280.49 5790.2,2432.16 5753,2582.5C 5705.47,2774.43 5653.47,2965.09 5597,3154.5C 5521.89,3405.91 5443.23,3656.24 5361,3905.5C 5295.05,4021.77 5222.39,4133.44 5143,4240.5C 5106.43,4289.74 5069.1,4338.4 5031,4386.5C 5001.28,4420.95 4972.28,4455.95 4944,4491.5C 4910.3,4528.2 4876.96,4565.2 4844,4602.5C 4824.2,4620.96 4805.87,4640.63 4789,4661.5C 4747.04,4706.13 4703.21,4748.63 4657.5,4789C 4608.69,4837 4557.69,4882.16 4504.5,4924.5 Z"/></g>
<g><path style="opacity:0.984" fill="#c365fd" d="M 1898.5,2949.5 C 1792.93,2908.92 1685.26,2875.09 1575.5,2848C 1468.01,2822.31 1359.01,2806.98 1248.5,2802C 1120.07,2796.26 994.405,2811.93 871.5,2849C 783.469,2877.02 701.802,2917.18 626.5,2969.5C 710.089,2908.36 801.089,2860.19 899.5,2825C 1068.39,2764.78 1241.72,2746.78 1419.5,2771C 1562.98,2786.94 1697.64,2829.94 1823.5,2900C 1849.59,2915.03 1874.59,2931.53 1898.5,2949.5 Z"/></g>
<g><path style="opacity:0.999" fill="#fc7177" d="M 1898.5,2949.5 C 2002.75,3020.24 2088.91,3108.58 2157,3214.5C 2228.41,3327.01 2283.41,3447.34 2322,3575.5C 2336.27,3621.23 2349.6,3667.23 2362,3713.5C 2389.49,3821.12 2416.82,3928.79 2444,4036.5C 2464.96,4117.73 2488.96,4198.06 2516,4277.5C 2553.33,4388.48 2604.66,4492.15 2670,4588.5C 2714.16,4651.5 2764.99,4708.84 2822.5,4760.5C 2823.26,4762.26 2824.6,4763.26 2826.5,4763.5C 2831.59,4768.42 2836.93,4773.25 2842.5,4778C 2920.86,4840.71 3007.19,4890.37 3101.5,4927C 3237.3,4978.96 3377.97,5007.63 3523.5,5013C 3631.83,5013.67 3740.17,5013.67 3848.5,5013C 3892.94,5012.07 3937.27,5009.4 3981.5,5005C 4071.13,4994.34 4160.13,4980.01 4248.5,4962C 4348.32,4939 4445.32,4907.5 4539.5,4867.5C 4542.92,4868.36 4546.26,4869.53 4549.5,4871C 4535.04,4889.29 4520.04,4907.13 4504.5,4924.5C 4485.27,4944.57 4464.93,4963.4 4443.5,4981C 4370.57,5037.79 4296.57,5093.13 4221.5,5147C 4047.04,5267.11 3863.37,5372.78 3670.5,5464C 3514.89,5534.95 3355.23,5595.62 3191.5,5646C 3051.38,5689.26 2910.04,5728.26 2767.5,5763C 2591.57,5800.85 2414.24,5809.18 2235.5,5788C 2102.44,5772.55 1970.77,5749.21 1840.5,5718C 1716.94,5688.59 1594.27,5655.92 1472.5,5620C 1274.09,5560.75 1077.09,5497.09 881.5,5429C 824.687,5390.92 770.02,5349.92 717.5,5306C 661.833,5258.01 607.666,5208.17 555,5156.5C 437.813,5031.61 340.48,4892.61 263,4739.5C 114.849,4437.45 66.5155,4120.11 118,3787.5C 162.684,3558.17 259.684,3354.83 409,3177.5C 438.37,3145.8 467.37,3113.8 496,3081.5C 527.977,3048.34 562.143,3018 598.5,2990.5C 600.749,2989.92 602.415,2988.59 603.5,2986.5C 605.404,2986.26 606.738,2985.26 607.5,2983.5C 609.404,2983.26 610.738,2982.26 611.5,2980.5C 613.404,2980.26 614.738,2979.26 615.5,2977.5C 617.404,2977.26 618.738,2976.26 619.5,2974.5C 621.404,2974.26 622.738,2973.26 623.5,2971.5C 625.027,2971.57 626.027,2970.91 626.5,2969.5C 701.802,2917.18 783.469,2877.02 871.5,2849C 994.405,2811.93 1120.07,2796.26 1248.5,2802C 1359.01,2806.98 1468.01,2822.31 1575.5,2848C 1685.26,2875.09 1792.93,2908.92 1898.5,2949.5 Z"/></g>
<g><path style="opacity:0.937" fill="#cd66e7" d="M 626.5,2969.5 C 626.027,2970.91 625.027,2971.57 623.5,2971.5C 623.973,2970.09 624.973,2969.43 626.5,2969.5 Z"/></g>
<g><path style="opacity:0.875" fill="#cd67e7" d="M 623.5,2971.5 C 622.738,2973.26 621.404,2974.26 619.5,2974.5C 620.262,2972.74 621.596,2971.74 623.5,2971.5 Z"/></g>
<g><path style="opacity:0.937" fill="#d167de" d="M 619.5,2974.5 C 618.738,2976.26 617.404,2977.26 615.5,2977.5C 616.262,2975.74 617.596,2974.74 619.5,2974.5 Z"/></g>
<g><path style="opacity:0.937" fill="#d668d5" d="M 615.5,2977.5 C 614.738,2979.26 613.404,2980.26 611.5,2980.5C 612.262,2978.74 613.596,2977.74 615.5,2977.5 Z"/></g>
<g><path style="opacity:0.875" fill="#d869d0" d="M 611.5,2980.5 C 610.738,2982.26 609.404,2983.26 607.5,2983.5C 608.262,2981.74 609.596,2980.74 611.5,2980.5 Z"/></g>
<g><path style="opacity:0.875" fill="#dc69c8" d="M 607.5,2983.5 C 606.738,2985.26 605.404,2986.26 603.5,2986.5C 604.262,2984.74 605.596,2983.74 607.5,2983.5 Z"/></g>
<g><path style="opacity:1" fill="#e56bb4" d="M 603.5,2986.5 C 602.415,2988.59 600.749,2989.92 598.5,2990.5C 599.585,2988.41 601.251,2987.08 603.5,2986.5 Z"/></g>
<g><path style="opacity:0.063" fill="#d067e4" d="M 2822.5,4760.5 C 2824.4,4760.74 2825.74,4761.74 2826.5,4763.5C 2824.6,4763.26 2823.26,4762.26 2822.5,4760.5 Z"/></g>
</svg>
